# xmcd
#
# Track frame offsets: 
#        150
#        14757
#        32222
#        47004
#        64116
#        79820
#        97939
#        113992
#        126809
#        144257
#        163223
#        175789
#
# Disc length: 2566 seconds
#
# Revision: 2
# Processed by: cddbd v1.5.2PL0 Copyright (c) Steve Scherf et al.
# Submitted via: ExactAudioCopy v0.99pb5
#
DISCID=9f0a040c
DTITLE=Stephanie McKay - tell it like it is
DYEAR=2008
DGENRE=Soul
TTITLE0=tell it like it is
TTITLE1=money
TTITLE2=jackson avenue
TTITLE3=this letter
TTITLE4=oh yeah
TTITLE5=sure feels good
TTITLE6=say what you feel
TTITLE7=kinky
TTITLE8=where did our love go?
TTITLE9=little more time
TTITLE10=fiya
TTITLE11=oxygen
EXTD=
EXTT0=
EXTT1=
EXTT2=
EXTT3=
EXTT4=
EXTT5=
EXTT6=
EXTT7=
EXTT8=
EXTT9=
EXTT10=
EXTT11=
PLAYORDER=
